# xmcd
#
# Track frame offsets: 
#        150
#        11871
#        28333
#        49384
#        64861
#        79116
#        95609
#        113624
#        131883
#        145918
#        164318
#        177543
#        192846
#
# Disc length: 2829 seconds
#
# Revision: 5
# Processed by: cddbd v1.5.2PL0 Copyright (c) Steve Scherf et al.
# Submitted via: ExactAudioCopy v1.4
#
DISCID=be0b0b0d
DTITLE=Banks - III
DYEAR=2019
DGENRE=Pop
TTITLE0=Till Now
TTITLE1=Gimme
TTITLE2=Contaminated
TTITLE3=Stroke
TTITLE4=Godless
TTITLE5=Sawzall
TTITLE6=Look What You're Doing To Me
TTITLE7=Hawaiian Mazes
TTITLE8=Alaska
TTITLE9=Propaganda
TTITLE10=The Fall
TTITLE11=If We Were Made Of Water
TTITLE12=What About Love
EXTD=YEAR: 2019
EXTT0=
EXTT1=
EXTT2=
EXTT3=
EXTT4=
EXTT5=
EXTT6=
EXTT7=
EXTT8=
EXTT9=
EXTT10=
EXTT11=
EXTT12=
PLAYORDER=
